<svg id="Stockholm-icons-_-Shopping-_-Bag_2" data-name="Stockholm-icons-/-Shopping-/-Bag#2" xmlns="http://www.w3.org/2000/svg" width="24" height="24" viewBox="0 0 24 24">
  <rect id="bound" width="24" height="24" fill="none"/>
  <path id="Combined-Shape" d="M5.943,4H18.057a1,1,0,0,1,1,.941l.82,13.941A2,2,0,0,1,18,21q-.059,0-.117,0H6.121a2,2,0,0,1-2-2q0-.059,0-.117l.82-13.941A1,1,0,0,1,5.943,4Z" fill="none" stroke="#000" stroke-width="1" fill-rule="evenodd"/>
  <path id="Oval-28" d="M7,7H9a3,3,0,0,0,6,0h2A5,5,0,0,1,7,7Z" fill="#000" fill-rule="evenodd"/>
</svg>
