<svg xmlns="http://www.w3.org/2000/svg" width="21.736" height="14.878" viewBox="0 0 21.736 14.878">
  <g id="Group_69950" data-name="Group 69950" transform="translate(-1 -4.684)">
    <g id="noun_Messenger_bike_470818" data-name="noun_Messenger bike_470818" transform="translate(-5 -49.052)">
      <g id="Group_1043" data-name="Group 1043" transform="translate(6 53.736)">
        <path id="Path_34" data-name="Path 34" d="M12.944,103.57a.514.514,0,0,0-.659.789,3.217,3.217,0,1,1-2.043-.724.517.517,0,0,0,0-1.034,4.236,4.236,0,1,0,2.7.97Z" transform="translate(-6 -96.204)" fill="#000"/>
        <path id="Path_36" data-name="Path 36" d="M114.43,102.6a4.621,4.621,0,0,0-1.332.207.511.511,0,0,0,.323.97,3.289,3.289,0,0,1,1.009-.155,3.207,3.207,0,0,1,0,6.414,3.241,3.241,0,0,1-3-2.056.52.52,0,1,0-.97.375,4.239,4.239,0,1,0,3.97-5.754Z" transform="translate(-96.922 -96.204)" fill="#000"/>
        <path id="Path_37" data-name="Path 37" d="M41.659,79.37c.026.013.052.013.078.026h.026c.026,0,.065.013.091.013h6.478a.22.22,0,0,0,.091-.013c.013,0,.026,0,.026-.013.026,0,.039-.013.065-.013s.026-.013.039-.013.039-.013.052-.026.026-.013.026-.026a.013.013,0,0,0,.013-.013l.026-.026.039-.039c.013-.013.026-.026.026-.039s.026-.026.026-.039.013-.026.026-.039.013-.026.026-.052.013-.026.013-.052.013-.026.013-.052v-.142a.047.047,0,0,0-.013-.039c0-.013-.013-.039-.013-.052s-.013-.039-.013-.052-.013-.026-.026-.039-.013-.039-.026-.052a.013.013,0,0,0-.013-.013l-3.1-4.086h5.483a.517.517,0,1,0,0-1.034H45.681a.609.609,0,0,0-.22.052l.595-1.06h.31a.517.517,0,1,0,0-1.034H44.09a.517.517,0,1,0,0,1.034h.763l-.543.97L37.9,72.672l.427-1.125,1.2.026h.013a.508.508,0,0,0,.517-.5.528.528,0,0,0-.5-.53L36.9,70.5a.517.517,0,1,0-.026,1.034h.349L34.561,78.5a.516.516,0,0,0,.3.672.508.508,0,0,0,.181.039.513.513,0,0,0,.478-.336l1.823-4.771L41.4,79.2h0l.013.013h0l.039.039.026.026c.013,0,.013.013.026.013s.026.013.039.026l.013.013c.013,0,.013.013.026.013a.013.013,0,0,1,.013.013Zm.129-1.4L38.466,73.81l5.327.608Zm2.9-3.039,2.612,3.44H42.746Z" transform="translate(-30.837 -68.255)" fill="#000"/>
        <rect id="Rectangle_101" data-name="Rectangle 101" width="4.292" height="4.292" rx="1" transform="translate(17.167 0)" fill="#000"/>
      </g>
    </g>
  </g>
</svg>
