<svg xmlns="http://www.w3.org/2000/svg" width="15.594" height="15.137" viewBox="0 0 15.594 15.137">
  <g id="Group_69953" data-name="Group 69953" transform="translate(-4.25 -4.192)">
    <path id="Path-76" d="M11.915,14.143l2.2-2.2a2,2,0,0,0,.375-2.309l-.125-.25a2,2,0,0,1,.375-2.309l2.733-2.733a.5.5,0,0,1,.8.13l1.1,2.208a4.387,4.387,0,0,1-.822,5.064l-6,6a5.427,5.427,0,0,1-5.554,1.311l-2.414-.8a.5.5,0,0,1-.2-.828l2.651-2.651a2,2,0,0,1,2.309-.375l.25.125A2,2,0,0,0,11.915,14.143Z" fill="#000" fill-rule="evenodd"/>
  </g>
</svg>
