<svg xmlns="http://www.w3.org/2000/svg" width="20.125" height="18.686" viewBox="0 0 20.125 18.686">
  <g id="Group_69952" data-name="Group 69952" transform="translate(-2.45 -2.45)">
    <path id="Combined-Shape" d="M22,15.01l.025-.01v4.586a1,1,0,0,1-1.707.707L18.025,18H6a3,3,0,0,1-3-3V6A3,3,0,0,1,6,3H19a3,3,0,0,1,3,3v9S22,15.007,22,15.01Z" fill="#000" stroke="#554e4e" stroke-width="1.1" fill-rule="evenodd"/>
    <path id="Combined-Shape-2" data-name="Combined-Shape" d="M7.5,12A1.5,1.5,0,1,1,9,10.5,1.5,1.5,0,0,1,7.5,12Zm5,0A1.5,1.5,0,1,1,14,10.5,1.5,1.5,0,0,1,12.5,12Zm5,0A1.5,1.5,0,1,1,19,10.5,1.5,1.5,0,0,1,17.5,12Z" fill="#000" fill-rule="evenodd"/>
  </g>
</svg>
