<svg xmlns="http://www.w3.org/2000/svg" width="20.5" height="20.5" viewBox="0 0 20.5 20.5">
  <g id="Group_69949" data-name="Group 69949" transform="translate(-1.75 -1.75)">
    <path id="Path_147" data-name="Path 147" d="M11.99,2A10,10,0,1,0,22,12,10,10,0,0,0,11.99,2ZM12,20a8,8,0,1,1,8-8A8,8,0,0,1,12,20Z" fill="#000" stroke="#fcf9f9" stroke-width="0.5"/>
    <path id="Path_148" data-name="Path 148" d="M12.5,7a1.275,1.275,0,0,0-.743-.382A1.33,1.33,0,0,0,11,7v6s5.219,3.156,5.25,3.15A.876.876,0,0,0,17,14.92l-4.5-2.67Z" fill="#000"/>
  </g>
</svg>
