<svg xmlns="http://www.w3.org/2000/svg" width="18" height="17" viewBox="0 0 18 17">
  <g id="Group_69957" data-name="Group 69957" transform="translate(-3 -3)">
    <rect id="Rectangle" width="2" height="14" rx="1" transform="translate(3 12.5) rotate(-90)" fill="#000"/>
    <rect id="Rectangle-199-Copy" width="2" height="17" rx="1" transform="translate(19 3)" fill="#000"/>
    <path id="Path-94" d="M1.585,7.707a.882.882,0,0,1-1.313,0,1.055,1.055,0,0,1,0-1.414l5.571-6A.881.881,0,0,1,7.127.263l5.571,5.5a1.055,1.055,0,0,1,.057,1.413.883.883,0,0,1-1.312.061L6.528,2.384Z" transform="translate(3 18) rotate(-90)" fill="#000"/>
  </g>
</svg>
