<svg xmlns="http://www.w3.org/2000/svg" width="17" height="13" viewBox="0 0 17 13">
  <g id="Group_69966" data-name="Group 69966" transform="translate(-4 -5)">
    <path id="Combined-Shape" d="M10.5,5h9a1.5,1.5,0,0,1,0,3h-9a1.5,1.5,0,0,1,0-3Zm0,5h9a1.5,1.5,0,0,1,0,3h-9a1.5,1.5,0,0,1,0-3Zm0,5h9a1.5,1.5,0,0,1,0,3h-9a1.5,1.5,0,0,1,0-3Z" fill-rule="evenodd"/>
    <path id="Combined-Shape-2" data-name="Combined-Shape" d="M5.5,8A1.5,1.5,0,1,1,7,6.5,1.5,1.5,0,0,1,5.5,8Zm0,5A1.5,1.5,0,1,1,7,11.5,1.5,1.5,0,0,1,5.5,13Zm0,5A1.5,1.5,0,1,1,7,16.5,1.5,1.5,0,0,1,5.5,18Z" fill-rule="evenodd" opacity="0.3"/>
  </g>
</svg>
