<svg xmlns="http://www.w3.org/2000/svg" width="21" height="21.76" viewBox="0 0 21 21.76">
  <g id="Group_69970" data-name="Group 69970" transform="translate(-1 -1.24)">
    <path id="Path-107" d="M10.963,7.5h.084a.5.5,0,0,1,.5.45L12,12.5l3.248,1.856a.5.5,0,0,1,.252.434V15a.382.382,0,0,1-.482.368L10.4,14.109a.5.5,0,0,1-.367-.521l.433-5.626A.5.5,0,0,1,10.963,7.5Z" fill="#000" fill-rule="evenodd"/>
    <path id="Combined-Shape" d="M7.39,2.835a10.487,10.487,0,1,1-6,6.823l1.926.54A8.489,8.489,0,1,0,8.749,4.454L9.939,5.874a.5.5,0,0,1-.355.821L4.718,6.97A.5.5,0,0,1,4.2,6.355L5.332,1.624A.5.5,0,0,1,6.2,1.418Z" fill="#000" fill-rule="evenodd"/>
  </g>
</svg>
