<svg id="Stockholm-icons-_-General-_-Trash" data-name="Stockholm-icons-/-General-/-Trash" xmlns="http://www.w3.org/2000/svg" width="24" height="24" viewBox="0 0 24 24">
  <rect id="bound" width="24" height="24" fill="none"/>
  <path id="round" d="M6,8V20.5A1.5,1.5,0,0,0,7.5,22h9A1.5,1.5,0,0,0,18,20.5V8Z" fill="#000"/>
  <path id="Shape" d="M14,4.5V4a1,1,0,0,0-1-1H11a1,1,0,0,0-1,1v.5H5.5A.5.5,0,0,0,5,5v.5a.5.5,0,0,0,.5.5h13a.5.5,0,0,0,.5-.5V5a.5.5,0,0,0-.5-.5Z" fill="#000" fill-rule="evenodd"/>
  <line id="Line_176" data-name="Line 176" y2="8" transform="translate(12 11.113)" fill="none" stroke="#fbfbfb" stroke-linecap="round" stroke-width="1"/>
  <line id="Line_177" data-name="Line 177" x1="1" y2="7" transform="translate(15 11.113)" fill="none" stroke="#fbfbfb" stroke-linecap="round" stroke-width="1"/>
  <line id="Line_178" data-name="Line 178" x2="1" y2="7" transform="translate(8 11.113)" fill="none" stroke="#fbfbfb" stroke-linecap="round" stroke-width="1"/>
</svg>
 